<svg width="1069" height="286" viewBox="0 0 1069 286" fill="none" 
    xmlns="http://www.w3.org/2000/svg">
    <path d="M164.672 225H136.4V126.416H28.8809V225H0.755859V11.7188H28.8809V103.418H136.4V11.7188H164.672V225ZM308.227 209.326C297.68 221.729 282.201 227.93 261.791 227.93C244.896 227.93 232.006 223.047 223.119 213.281C214.33 203.418 209.887 188.867 209.789 169.629V66.5039H236.889V168.896C236.889 192.92 246.654 204.932 266.186 204.932C286.889 204.932 300.658 197.217 307.494 181.787V66.5039H334.594V225H308.812L308.227 209.326ZM405.346 225H378.246V0H405.346V225ZM582.738 147.51C582.738 171.631 577.221 191.064 566.186 205.811C555.15 220.557 540.209 227.93 521.361 227.93C502.123 227.93 486.986 221.826 475.951 209.619V285.938H448.852V66.5039H473.607L474.926 84.082C485.961 70.4102 501.293 63.5742 520.922 63.5742C539.965 63.5742 555.004 70.752 566.039 85.1074C577.172 99.4629 582.738 119.434 582.738 145.02V147.51ZM555.639 144.434C555.639 126.562 551.83 112.451 544.213 102.1C536.596 91.748 526.146 86.5723 512.865 86.5723C496.459 86.5723 484.154 93.8477 475.951 108.398V184.131C484.057 198.584 496.459 205.811 513.158 205.811C526.146 205.811 536.449 200.684 544.066 190.43C551.781 180.078 555.639 164.746 555.639 144.434ZM751.195 147.51C751.195 171.631 745.678 191.064 734.643 205.811C723.607 220.557 708.666 227.93 689.818 227.93C670.58 227.93 655.443 221.826 644.408 209.619V285.938H617.309V66.5039H642.064L643.383 84.082C654.418 70.4102 669.75 63.5742 689.379 63.5742C708.422 63.5742 723.461 70.752 734.496 85.1074C745.629 99.4629 751.195 119.434 751.195 145.02V147.51ZM724.096 144.434C724.096 126.562 720.287 112.451 712.67 102.1C705.053 91.748 694.604 86.5723 681.322 86.5723C664.916 86.5723 652.611 93.8477 644.408 108.398V184.131C652.514 198.584 664.916 205.811 681.615 205.811C694.604 205.811 704.906 200.684 712.523 190.43C720.238 180.078 724.096 164.746 724.096 144.434ZM883.617 225C882.055 221.875 880.785 216.309 879.809 208.301C867.211 221.387 852.172 227.93 834.691 227.93C819.066 227.93 806.225 223.535 796.166 214.746C786.205 205.859 781.225 194.629 781.225 181.055C781.225 164.551 787.475 151.758 799.975 142.676C812.572 133.496 830.248 128.906 853.002 128.906H879.369V116.455C879.369 106.982 876.537 99.4629 870.873 93.8965C865.209 88.2324 856.859 85.4004 845.824 85.4004C836.156 85.4004 828.051 87.8418 821.508 92.7246C814.965 97.6074 811.693 103.516 811.693 110.449H784.447C784.447 102.539 787.23 94.9219 792.797 87.5977C798.461 80.1758 806.078 74.3164 815.648 70.0195C825.316 65.7227 835.912 63.5742 847.436 63.5742C865.697 63.5742 880.004 68.1641 890.355 77.3438C900.707 86.4258 906.078 98.9746 906.469 114.99V187.939C906.469 202.49 908.324 214.062 912.035 222.656V225H883.617ZM838.646 204.346C847.143 204.346 855.199 202.148 862.816 197.754C870.434 193.359 875.951 187.646 879.369 180.615V148.096H858.129C824.926 148.096 808.324 157.812 808.324 177.246C808.324 185.742 811.156 192.383 816.82 197.168C822.484 201.953 829.76 204.346 838.646 204.346ZM1041.23 182.959C1041.23 175.635 1038.45 169.971 1032.88 165.967C1027.42 161.865 1017.8 158.35 1004.03 155.42C990.355 152.49 979.467 148.975 971.361 144.873C963.354 140.771 957.396 135.889 953.49 130.225C949.682 124.561 947.777 117.822 947.777 110.01C947.777 97.0215 953.246 86.0352 964.184 77.0508C975.219 68.0664 989.281 63.5742 1006.37 63.5742C1024.34 63.5742 1038.89 68.2129 1050.02 77.4902C1061.25 86.7676 1066.87 98.6328 1066.87 113.086H1039.62C1039.62 105.664 1036.45 99.2676 1030.1 93.8965C1023.85 88.5254 1015.94 85.8398 1006.37 85.8398C996.508 85.8398 988.793 87.9883 983.227 92.2852C977.66 96.582 974.877 102.197 974.877 109.131C974.877 115.674 977.465 120.605 982.641 123.926C987.816 127.246 997.143 130.42 1010.62 133.447C1024.19 136.475 1035.18 140.088 1043.58 144.287C1051.98 148.486 1058.18 153.564 1062.18 159.521C1066.28 165.381 1068.33 172.559 1068.33 181.055C1068.33 195.215 1062.67 206.592 1051.34 215.186C1040.01 223.682 1025.32 227.93 1007.25 227.93C994.555 227.93 983.324 225.684 973.559 221.191C963.793 216.699 956.127 210.449 950.561 202.441C945.092 194.336 942.357 185.596 942.357 176.221H969.457C969.945 185.303 973.559 192.529 980.297 197.9C987.133 203.174 996.117 205.811 1007.25 205.811C1017.5 205.811 1025.71 203.76 1031.86 199.658C1038.11 195.459 1041.23 189.893 1041.23 182.959Z" fill="#002C60"/>
</svg>
