<svg width="238" height="41" viewBox="0 0 238 41" fill="none" xmlns="http://www.w3.org/2000/svg">
<mask id="path-1-outside-1" maskUnits="userSpaceOnUse" x="0.905273" y="0.5" width="237" height="40" fill="black">
<rect fill="white" x="0.905273" y="0.5" width="237" height="40"/>
<path d="M29.2734 27.7207C28.834 31.4805 27.4424 34.3857 25.0986 36.4365C22.7712 38.471 19.6706 39.4883 15.7969 39.4883C11.5977 39.4883 8.22852 37.9827 5.68945 34.9717C3.16667 31.9606 1.90527 27.9323 1.90527 22.8867V19.4688C1.90527 16.1647 2.49121 13.2594 3.66309 10.7529C4.85124 8.24642 6.52767 6.32585 8.69238 4.99121C10.8571 3.6403 13.3636 2.96484 16.2119 2.96484C19.988 2.96484 23.0153 4.02279 25.2939 6.13867C27.5726 8.23828 28.8991 11.1517 29.2734 14.8789H24.5615C24.1546 12.0469 23.2676 9.99609 21.9004 8.72656C20.5495 7.45703 18.6533 6.82227 16.2119 6.82227C13.2171 6.82227 10.8652 7.92904 9.15625 10.1426C7.46354 12.3561 6.61719 15.5055 6.61719 19.5908V23.0332C6.61719 26.8906 7.42285 29.9587 9.03418 32.2373C10.6455 34.516 12.8997 35.6553 15.7969 35.6553C18.401 35.6553 20.3949 35.0693 21.7783 33.8975C23.1781 32.7093 24.1058 30.6504 24.5615 27.7207H29.2734Z"/>
<path d="M47.7549 16.6367C47.0713 16.5228 46.3307 16.4658 45.5332 16.4658C42.571 16.4658 40.5609 17.7272 39.5029 20.25V39H34.9863V25.792V12.584H39.3809L39.4541 15.6357C40.9352 13.2757 43.0348 12.0957 45.7529 12.0957C46.6318 12.0957 47.2992 12.2096 47.7549 12.4375V16.6367Z"/>
<path d="M56.8369 39H52.3203V12.584H56.8369V39ZM51.9541 5.57715C51.9541 4.84473 52.1738 4.22624 52.6133 3.72168C53.069 3.21712 53.7363 2.96484 54.6152 2.96484C55.4941 2.96484 56.1615 3.21712 56.6172 3.72168C57.0729 4.22624 57.3008 4.84473 57.3008 5.57715C57.3008 6.30957 57.0729 6.91992 56.6172 7.4082C56.1615 7.89648 55.4941 8.14062 54.6152 8.14062C53.7363 8.14062 53.069 7.89648 52.6133 7.4082C52.1738 6.91992 51.9541 6.30957 51.9541 5.57715Z"/>
<path d="M79.4688 31.9932C79.4688 30.7725 79.0049 29.8285 78.0771 29.1611C77.1657 28.4775 75.5625 27.8916 73.2676 27.4033C70.9889 26.915 69.1742 26.3291 67.8232 25.6455C66.4886 24.9619 65.4958 24.1481 64.8447 23.2041C64.21 22.2601 63.8926 21.137 63.8926 19.835C63.8926 17.6702 64.804 15.8392 66.627 14.3418C68.4661 12.8444 70.8099 12.0957 73.6582 12.0957C76.653 12.0957 79.0781 12.8688 80.9336 14.415C82.8053 15.9613 83.7412 17.9388 83.7412 20.3477H79.2002C79.2002 19.1107 78.6712 18.0446 77.6133 17.1494C76.5716 16.2542 75.2533 15.8066 73.6582 15.8066C72.0143 15.8066 70.7285 16.1647 69.8008 16.8809C68.873 17.597 68.4092 18.5329 68.4092 19.6885C68.4092 20.779 68.8405 21.6009 69.7031 22.1543C70.5658 22.7077 72.1201 23.2367 74.3662 23.7412C76.6286 24.2458 78.4596 24.848 79.8594 25.5479C81.2591 26.2477 82.2926 27.0941 82.96 28.0869C83.6436 29.0635 83.9854 30.2598 83.9854 31.6758C83.9854 34.0358 83.0413 35.932 81.1533 37.3643C79.2653 38.7803 76.8158 39.4883 73.8047 39.4883C71.6888 39.4883 69.8171 39.1139 68.1895 38.3652C66.5618 37.6165 65.2842 36.5749 64.3564 35.2402C63.445 33.8893 62.9893 32.4326 62.9893 30.8701H67.5059C67.5872 32.3838 68.1895 33.5882 69.3125 34.4834C70.4518 35.3623 71.9492 35.8018 73.8047 35.8018C75.5137 35.8018 76.8809 35.46 77.9062 34.7764C78.9479 34.0765 79.4688 33.1488 79.4688 31.9932Z"/>
<path d="M94.7764 39H90.2598V12.584H94.7764V39ZM89.8936 5.57715C89.8936 4.84473 90.1133 4.22624 90.5527 3.72168C91.0085 3.21712 91.6758 2.96484 92.5547 2.96484C93.4336 2.96484 94.1009 3.21712 94.5566 3.72168C95.0124 4.22624 95.2402 4.84473 95.2402 5.57715C95.2402 6.30957 95.0124 6.91992 94.5566 7.4082C94.1009 7.89648 93.4336 8.14062 92.5547 8.14062C91.6758 8.14062 91.0085 7.89648 90.5527 7.4082C90.1133 6.91992 89.8936 6.30957 89.8936 5.57715Z"/>
<path d="M117.408 31.9932C117.408 30.7725 116.944 29.8285 116.017 29.1611C115.105 28.4775 113.502 27.8916 111.207 27.4033C108.928 26.915 107.114 26.3291 105.763 25.6455C104.428 24.9619 103.435 24.1481 102.784 23.2041C102.149 22.2601 101.832 21.137 101.832 19.835C101.832 17.6702 102.743 15.8392 104.566 14.3418C106.406 12.8444 108.749 12.0957 111.598 12.0957C114.592 12.0957 117.018 12.8688 118.873 14.415C120.745 15.9613 121.681 17.9388 121.681 20.3477H117.14C117.14 19.1107 116.611 18.0446 115.553 17.1494C114.511 16.2542 113.193 15.8066 111.598 15.8066C109.954 15.8066 108.668 16.1647 107.74 16.8809C106.812 17.597 106.349 18.5329 106.349 19.6885C106.349 20.779 106.78 21.6009 107.643 22.1543C108.505 22.7077 110.06 23.2367 112.306 23.7412C114.568 24.2458 116.399 24.848 117.799 25.5479C119.199 26.2477 120.232 27.0941 120.899 28.0869C121.583 29.0635 121.925 30.2598 121.925 31.6758C121.925 34.0358 120.981 35.932 119.093 37.3643C117.205 38.7803 114.755 39.4883 111.744 39.4883C109.628 39.4883 107.757 39.1139 106.129 38.3652C104.501 37.6165 103.224 36.5749 102.296 35.2402C101.384 33.8893 100.929 32.4326 100.929 30.8701H105.445C105.527 32.3838 106.129 33.5882 107.252 34.4834C108.391 35.3623 109.889 35.8018 111.744 35.8018C113.453 35.8018 114.82 35.46 115.846 34.7764C116.887 34.0765 117.408 33.1488 117.408 31.9932Z"/>
<path d="M135.182 26.7686L132.35 29.7227V39H127.833V1.5H132.35V24.1807L134.767 21.2754L142.994 12.584H148.487L138.209 23.6191L149.684 39H144.386L135.182 26.7686Z"/>
<path d="M169.459 39C169.199 38.4792 168.987 37.5514 168.824 36.2168C166.725 38.3978 164.218 39.4883 161.305 39.4883C158.701 39.4883 156.56 38.7559 154.884 37.291C153.224 35.8099 152.394 33.9382 152.394 31.6758C152.394 28.9251 153.435 26.793 155.519 25.2793C157.618 23.7493 160.564 22.9844 164.356 22.9844H168.751V20.9092C168.751 19.3304 168.279 18.0771 167.335 17.1494C166.391 16.2054 164.999 15.7334 163.16 15.7334C161.549 15.7334 160.198 16.1403 159.107 16.9541C158.017 17.7679 157.472 18.7526 157.472 19.9082H152.931C152.931 18.5898 153.395 17.3203 154.322 16.0996C155.266 14.8626 156.536 13.8861 158.131 13.1699C159.742 12.4538 161.508 12.0957 163.429 12.0957C166.472 12.0957 168.857 12.8607 170.582 14.3906C172.307 15.9043 173.202 17.9958 173.268 20.665V32.8232C173.268 35.2484 173.577 37.1771 174.195 38.6094V39H169.459ZM161.964 35.5576C163.38 35.5576 164.723 35.1914 165.992 34.459C167.262 33.7266 168.181 32.7744 168.751 31.6025V26.1826H165.211C159.677 26.1826 156.91 27.8021 156.91 31.041C156.91 32.457 157.382 33.5638 158.326 34.3613C159.27 35.1589 160.483 35.5576 161.964 35.5576Z"/>
<path d="M196.656 39C196.396 38.4792 196.184 37.5514 196.021 36.2168C193.922 38.3978 191.415 39.4883 188.502 39.4883C185.898 39.4883 183.757 38.7559 182.081 37.291C180.421 35.8099 179.591 33.9382 179.591 31.6758C179.591 28.9251 180.632 26.793 182.716 25.2793C184.815 23.7493 187.761 22.9844 191.554 22.9844H195.948V20.9092C195.948 19.3304 195.476 18.0771 194.532 17.1494C193.588 16.2054 192.197 15.7334 190.357 15.7334C188.746 15.7334 187.395 16.1403 186.305 16.9541C185.214 17.7679 184.669 18.7526 184.669 19.9082H180.128C180.128 18.5898 180.592 17.3203 181.52 16.0996C182.464 14.8626 183.733 13.8861 185.328 13.1699C186.939 12.4538 188.705 12.0957 190.626 12.0957C193.67 12.0957 196.054 12.8607 197.779 14.3906C199.505 15.9043 200.4 17.9958 200.465 20.665V32.8232C200.465 35.2484 200.774 37.1771 201.393 38.6094V39H196.656ZM189.161 35.5576C190.577 35.5576 191.92 35.1914 193.189 34.459C194.459 33.7266 195.379 32.7744 195.948 31.6025V26.1826H192.408C186.874 26.1826 184.107 27.8021 184.107 31.041C184.107 32.457 184.579 33.5638 185.523 34.3613C186.467 35.1589 187.68 35.5576 189.161 35.5576Z"/>
<path d="M220.313 16.6367C219.63 16.5228 218.889 16.4658 218.092 16.4658C215.13 16.4658 213.119 17.7272 212.062 20.25V39H207.545V12.584H211.939L212.013 15.6357C213.494 13.2757 215.593 12.0957 218.312 12.0957C219.19 12.0957 219.858 12.2096 220.313 12.4375V16.6367Z"/>
<path d="M231.837 6.1875V12.584H236.769V16.0752H231.837V32.457C231.837 33.515 232.057 34.3125 232.496 34.8496C232.936 35.3704 233.684 35.6309 234.742 35.6309C235.263 35.6309 235.979 35.5332 236.891 35.3379V39C235.702 39.3255 234.547 39.4883 233.424 39.4883C231.406 39.4883 229.884 38.8779 228.858 37.6572C227.833 36.4365 227.32 34.7031 227.32 32.457V16.0752H222.511V12.584H227.32V6.1875H231.837Z"/>
</mask>
<path d="M29.2734 27.7207C28.834 31.4805 27.4424 34.3857 25.0986 36.4365C22.7712 38.471 19.6706 39.4883 15.7969 39.4883C11.5977 39.4883 8.22852 37.9827 5.68945 34.9717C3.16667 31.9606 1.90527 27.9323 1.90527 22.8867V19.4688C1.90527 16.1647 2.49121 13.2594 3.66309 10.7529C4.85124 8.24642 6.52767 6.32585 8.69238 4.99121C10.8571 3.6403 13.3636 2.96484 16.2119 2.96484C19.988 2.96484 23.0153 4.02279 25.2939 6.13867C27.5726 8.23828 28.8991 11.1517 29.2734 14.8789H24.5615C24.1546 12.0469 23.2676 9.99609 21.9004 8.72656C20.5495 7.45703 18.6533 6.82227 16.2119 6.82227C13.2171 6.82227 10.8652 7.92904 9.15625 10.1426C7.46354 12.3561 6.61719 15.5055 6.61719 19.5908V23.0332C6.61719 26.8906 7.42285 29.9587 9.03418 32.2373C10.6455 34.516 12.8997 35.6553 15.7969 35.6553C18.401 35.6553 20.3949 35.0693 21.7783 33.8975C23.1781 32.7093 24.1058 30.6504 24.5615 27.7207H29.2734Z" fill="#554596"/>
<path d="M47.7549 16.6367C47.0713 16.5228 46.3307 16.4658 45.5332 16.4658C42.571 16.4658 40.5609 17.7272 39.5029 20.25V39H34.9863V25.792V12.584H39.3809L39.4541 15.6357C40.9352 13.2757 43.0348 12.0957 45.7529 12.0957C46.6318 12.0957 47.2992 12.2096 47.7549 12.4375V16.6367Z" fill="#554596"/>
<path d="M56.8369 39H52.3203V12.584H56.8369V39ZM51.9541 5.57715C51.9541 4.84473 52.1738 4.22624 52.6133 3.72168C53.069 3.21712 53.7363 2.96484 54.6152 2.96484C55.4941 2.96484 56.1615 3.21712 56.6172 3.72168C57.0729 4.22624 57.3008 4.84473 57.3008 5.57715C57.3008 6.30957 57.0729 6.91992 56.6172 7.4082C56.1615 7.89648 55.4941 8.14062 54.6152 8.14062C53.7363 8.14062 53.069 7.89648 52.6133 7.4082C52.1738 6.91992 51.9541 6.30957 51.9541 5.57715Z" fill="#554596"/>
<path d="M79.4688 31.9932C79.4688 30.7725 79.0049 29.8285 78.0771 29.1611C77.1657 28.4775 75.5625 27.8916 73.2676 27.4033C70.9889 26.915 69.1742 26.3291 67.8232 25.6455C66.4886 24.9619 65.4958 24.1481 64.8447 23.2041C64.21 22.2601 63.8926 21.137 63.8926 19.835C63.8926 17.6702 64.804 15.8392 66.627 14.3418C68.4661 12.8444 70.8099 12.0957 73.6582 12.0957C76.653 12.0957 79.0781 12.8688 80.9336 14.415C82.8053 15.9613 83.7412 17.9388 83.7412 20.3477H79.2002C79.2002 19.1107 78.6712 18.0446 77.6133 17.1494C76.5716 16.2542 75.2533 15.8066 73.6582 15.8066C72.0143 15.8066 70.7285 16.1647 69.8008 16.8809C68.873 17.597 68.4092 18.5329 68.4092 19.6885C68.4092 20.779 68.8405 21.6009 69.7031 22.1543C70.5658 22.7077 72.1201 23.2367 74.3662 23.7412C76.6286 24.2458 78.4596 24.848 79.8594 25.5479C81.2591 26.2477 82.2926 27.0941 82.96 28.0869C83.6436 29.0635 83.9854 30.2598 83.9854 31.6758C83.9854 34.0358 83.0413 35.932 81.1533 37.3643C79.2653 38.7803 76.8158 39.4883 73.8047 39.4883C71.6888 39.4883 69.8171 39.1139 68.1895 38.3652C66.5618 37.6165 65.2842 36.5749 64.3564 35.2402C63.445 33.8893 62.9893 32.4326 62.9893 30.8701H67.5059C67.5872 32.3838 68.1895 33.5882 69.3125 34.4834C70.4518 35.3623 71.9492 35.8018 73.8047 35.8018C75.5137 35.8018 76.8809 35.46 77.9062 34.7764C78.9479 34.0765 79.4688 33.1488 79.4688 31.9932Z" fill="#554596"/>
<path d="M94.7764 39H90.2598V12.584H94.7764V39ZM89.8936 5.57715C89.8936 4.84473 90.1133 4.22624 90.5527 3.72168C91.0085 3.21712 91.6758 2.96484 92.5547 2.96484C93.4336 2.96484 94.1009 3.21712 94.5566 3.72168C95.0124 4.22624 95.2402 4.84473 95.2402 5.57715C95.2402 6.30957 95.0124 6.91992 94.5566 7.4082C94.1009 7.89648 93.4336 8.14062 92.5547 8.14062C91.6758 8.14062 91.0085 7.89648 90.5527 7.4082C90.1133 6.91992 89.8936 6.30957 89.8936 5.57715Z" fill="#554596"/>
<path d="M117.408 31.9932C117.408 30.7725 116.944 29.8285 116.017 29.1611C115.105 28.4775 113.502 27.8916 111.207 27.4033C108.928 26.915 107.114 26.3291 105.763 25.6455C104.428 24.9619 103.435 24.1481 102.784 23.2041C102.149 22.2601 101.832 21.137 101.832 19.835C101.832 17.6702 102.743 15.8392 104.566 14.3418C106.406 12.8444 108.749 12.0957 111.598 12.0957C114.592 12.0957 117.018 12.8688 118.873 14.415C120.745 15.9613 121.681 17.9388 121.681 20.3477H117.14C117.14 19.1107 116.611 18.0446 115.553 17.1494C114.511 16.2542 113.193 15.8066 111.598 15.8066C109.954 15.8066 108.668 16.1647 107.74 16.8809C106.812 17.597 106.349 18.5329 106.349 19.6885C106.349 20.779 106.78 21.6009 107.643 22.1543C108.505 22.7077 110.06 23.2367 112.306 23.7412C114.568 24.2458 116.399 24.848 117.799 25.5479C119.199 26.2477 120.232 27.0941 120.899 28.0869C121.583 29.0635 121.925 30.2598 121.925 31.6758C121.925 34.0358 120.981 35.932 119.093 37.3643C117.205 38.7803 114.755 39.4883 111.744 39.4883C109.628 39.4883 107.757 39.1139 106.129 38.3652C104.501 37.6165 103.224 36.5749 102.296 35.2402C101.384 33.8893 100.929 32.4326 100.929 30.8701H105.445C105.527 32.3838 106.129 33.5882 107.252 34.4834C108.391 35.3623 109.889 35.8018 111.744 35.8018C113.453 35.8018 114.82 35.46 115.846 34.7764C116.887 34.0765 117.408 33.1488 117.408 31.9932Z" fill="#554596"/>
<path d="M135.182 26.7686LF132.35 29.7227V39H127.833V1.5H132.35V24.1807L134.767 21.2754L142.994 12.584H148.487L138.209 23.6191L149.684 39H144.386L135.182 26.7686Z" fill="#554596"/>
<path d="M169.459 39C169.199 38.4792 168.987 37.5514 168.824 36.2168C166.725 38.3978 164.218 39.4883 161.305 39.4883C158.701 39.4883 156.56 38.7559 154.884 37.291C153.224 35.8099 152.394 33.9382 152.394 31.6758C152.394 28.9251 153.435 26.793 155.519 25.2793C157.618 23.7493 160.564 22.9844 164.356 22.9844H168.751V20.9092C168.751 19.3304 168.279 18.0771 167.335 17.1494C166.391 16.2054 164.999 15.7334 163.16 15.7334C161.549 15.7334 160.198 16.1403 159.107 16.9541C158.017 17.7679 157.472 18.7526 157.472 19.9082H152.931C152.931 18.5898 153.395 17.3203 154.322 16.0996C155.266 14.8626 156.536 13.8861 158.131 13.1699C159.742 12.4538 161.508 12.0957 163.429 12.0957C166.472 12.0957 168.857 12.8607 170.582 14.3906C172.307 15.9043 173.202 17.9958 173.268 20.665V32.8232C173.268 35.2484 173.577 37.1771 174.195 38.6094V39H169.459ZM161.964 35.5576C163.38 35.5576 164.723 35.1914 165.992 34.459C167.262 33.7266 168.181 32.7744 168.751 31.6025V26.1826H165.211C159.677 26.1826 156.91 27.8021 156.91 31.041C156.91 32.457 157.382 33.5638 158.326 34.3613C159.27 35.1589 160.483 35.5576 161.964 35.5576Z" fill="#554596"/>
<path d="M196.656 39C196.396 38.4792 196.184 37.5514 196.021 36.2168C193.922 38.3978 191.415 39.4883 188.502 39.4883C185.898 39.4883 183.757 38.7559 182.081 37.291C180.421 35.8099 179.591 33.9382 179.591 31.6758C179.591 28.9251 180.632 26.793 182.716 25.2793C184.815 23.7493 187.761 22.9844 191.554 22.9844H195.948V20.9092C195.948 19.3304 195.476 18.0771 194.532 17.1494C193.588 16.2054 192.197 15.7334 190.357 15.7334C188.746 15.7334 187.395 16.1403 186.305 16.9541C185.214 17.7679 184.669 18.7526 184.669 19.9082H180.128C180.128 18.5898 180.592 17.3203 181.52 16.0996C182.464 14.8626 183.733 13.8861 185.328 13.1699C186.939 12.4538 188.705 12.0957 190.626 12.0957C193.67 12.0957 196.054 12.8607 197.779 14.3906C199.505 15.9043 200.4 17.9958 200.465 20.665V32.8232C200.465 35.2484 200.774 37.1771 201.393 38.6094V39H196.656ZM189.161 35.5576C190.577 35.5576 191.92 35.1914 193.189 34.459C194.459 33.7266 195.379 32.7744 195.948 31.6025V26.1826H192.408C186.874 26.1826 184.107 27.8021 184.107 31.041C184.107 32.457 184.579 33.5638 185.523 34.3613C186.467 35.1589 187.68 35.5576 189.161 35.5576Z" fill="#554596"/>
<path d="M220.313 16.6367C219.63 16.5228 218.889 16.4658 218.092 16.4658C215.13 16.4658 213.119 17.7272 212.062 20.25V39H207.545V12.584H211.939L212.013 15.6357C213.494 13.2757 215.593 12.0957 218.312 12.0957C219.19 12.0957 219.858 12.2096 220.313 12.4375V16.6367Z" fill="#554596"/>
<path d="M231.837 6.1875V12.584H236.769V16.0752H231.837V32.457C231.837 33.515 232.057 34.3125 232.496 34.8496C232.936 35.3704 233.684 35.6309 234.742 35.6309C235.263 35.6309 235.979 35.5332 236.891 35.3379V39C235.702 39.3255 234.547 39.4883 233.424 39.4883C231.406 39.4883 229.884 38.8779 228.858 37.6572C227.833 36.4365 227.32 34.7031 227.32 32.457V16.0752H222.511V12.584H227.32V6.1875H231.837Z" fill="#554596"/>
<path d="M29.2734 27.7207C28.834 31.4805 27.4424 34.3857 25.0986 36.4365C22.7712 38.471 19.6706 39.4883 15.7969 39.4883C11.5977 39.4883 8.22852 37.9827 5.68945 34.9717C3.16667 31.9606 1.90527 27.9323 1.90527 22.8867V19.4688C1.90527 16.1647 2.49121 13.2594 3.66309 10.7529C4.85124 8.24642 6.52767 6.32585 8.69238 4.99121C10.8571 3.6403 13.3636 2.96484 16.2119 2.96484C19.988 2.96484 23.0153 4.02279 25.2939 6.13867C27.5726 8.23828 28.8991 11.1517 29.2734 14.8789H24.5615C24.1546 12.0469 23.2676 9.99609 21.9004 8.72656C20.5495 7.45703 18.6533 6.82227 16.2119 6.82227C13.2171 6.82227 10.8652 7.92904 9.15625 10.1426C7.46354 12.3561 6.61719 15.5055 6.61719 19.5908V23.0332C6.61719 26.8906 7.42285 29.9587 9.03418 32.2373C10.6455 34.516 12.8997 35.6553 15.7969 35.6553C18.401 35.6553 20.3949 35.0693 21.7783 33.8975C23.1781 32.7093 24.1058 30.6504 24.5615 27.7207H29.2734Z" stroke="#554596" stroke-width="2" mask="url(#path-1-outside-1)"/>
<path d="M47.7549 16.6367C47.0713 16.5228 46.3307 16.4658 45.5332 16.4658C42.571 16.4658 40.5609 17.7272 39.5029 20.25V39H34.9863V25.792V12.584H39.3809L39.4541 15.6357C40.9352 13.2757 43.0348 12.0957 45.7529 12.0957C46.6318 12.0957 47.2992 12.2096 47.7549 12.4375V16.6367Z" stroke="#554596" stroke-width="2" mask="url(#path-1-outside-1)"/>
<path d="M56.8369 39H52.3203V12.584H56.8369V39ZM51.9541 5.57715C51.9541 4.84473 52.1738 4.22624 52.6133 3.72168C53.069 3.21712 53.7363 2.96484 54.6152 2.96484C55.4941 2.96484 56.1615 3.21712 56.6172 3.72168C57.0729 4.22624 57.3008 4.84473 57.3008 5.57715C57.3008 6.30957 57.0729 6.91992 56.6172 7.4082C56.1615 7.89648 55.4941 8.14062 54.6152 8.14062C53.7363 8.14062 53.069 7.89648 52.6133 7.4082C52.1738 6.91992 51.9541 6.30957 51.9541 5.57715Z" stroke="#554596" stroke-width="2" mask="url(#path-1-outside-1)"/>
<path d="M79.4688 31.9932C79.4688 30.7725 79.0049 29.8285 78.0771 29.1611C77.1657 28.4775 75.5625 27.8916 73.2676 27.4033C70.9889 26.915 69.1742 26.3291 67.8232 25.6455C66.4886 24.9619 65.4958 24.1481 64.8447 23.2041C64.21 22.2601 63.8926 21.137 63.8926 19.835C63.8926 17.6702 64.804 15.8392 66.627 14.3418C68.4661 12.8444 70.8099 12.0957 73.6582 12.0957C76.653 12.0957 79.0781 12.8688 80.9336 14.415C82.8053 15.9613 83.7412 17.9388 83.7412 20.3477H79.2002C79.2002 19.1107 78.6712 18.0446 77.6133 17.1494C76.5716 16.2542 75.2533 15.8066 73.6582 15.8066C72.0143 15.8066 70.7285 16.1647 69.8008 16.8809C68.873 17.597 68.4092 18.5329 68.4092 19.6885C68.4092 20.779 68.8405 21.6009 69.7031 22.1543C70.5658 22.7077 72.1201 23.2367 74.3662 23.7412C76.6286 24.2458 78.4596 24.848 79.8594 25.5479C81.2591 26.2477 82.2926 27.0941 82.96 28.0869C83.6436 29.0635 83.9854 30.2598 83.9854 31.6758C83.9854 34.0358 83.0413 35.932 81.1533 37.3643C79.2653 38.7803 76.8158 39.4883 73.8047 39.4883C71.6888 39.4883 69.8171 39.1139 68.1895 38.3652C66.5618 37.6165 65.2842 36.5749 64.3564 35.2402C63.445 33.8893 62.9893 32.4326 62.9893 30.8701H67.5059C67.5872 32.3838 68.1895 33.5882 69.3125 34.4834C70.4518 35.3623 71.9492 35.8018 73.8047 35.8018C75.5137 35.8018 76.8809 35.46 77.9062 34.7764C78.9479 34.0765 79.4688 33.1488 79.4688 31.9932Z" stroke="#554596" stroke-width="2" mask="url(#path-1-outside-1)"/>
<path d="M94.7764 39H90.2598V12.584H94.7764V39ZM89.8936 5.57715C89.8936 4.84473 90.1133 4.22624 90.5527 3.72168C91.0085 3.21712 91.6758 2.96484 92.5547 2.96484C93.4336 2.96484 94.1009 3.21712 94.5566 3.72168C95.0124 4.22624 95.2402 4.84473 95.2402 5.57715C95.2402 6.30957 95.0124 6.91992 94.5566 7.4082C94.1009 7.89648 93.4336 8.14062 92.5547 8.14062C91.6758 8.14062 91.0085 7.89648 90.5527 7.4082C90.1133 6.91992 89.8936 6.30957 89.8936 5.57715Z" stroke="#554596" stroke-width="2" mask="url(#path-1-outside-1)"/>
<path d="M117.408 31.9932C117.408 30.7725 116.944 29.8285 116.017 29.1611C115.105 28.4775 113.502 27.8916 111.207 27.4033C108.928 26.915 107.114 26.3291 105.763 25.6455C104.428 24.9619 103.435 24.1481 102.784 23.2041C102.149 22.2601 101.832 21.137 101.832 19.835C101.832 17.6702 102.743 15.8392 104.566 14.3418C106.406 12.8444 108.749 12.0957 111.598 12.0957C114.592 12.0957 117.018 12.8688 118.873 14.415C120.745 15.9613 121.681 17.9388 121.681 20.3477H117.14C117.14 19.1107 116.611 18.0446 115.553 17.1494C114.511 16.2542 113.193 15.8066 111.598 15.8066C109.954 15.8066 108.668 16.1647 107.74 16.8809C106.812 17.597 106.349 18.5329 106.349 19.6885C106.349 20.779 106.78 21.6009 107.643 22.1543C108.505 22.7077 110.06 23.2367 112.306 23.7412C114.568 24.2458 116.399 24.848 117.799 25.5479C119.199 26.2477 120.232 27.0941 120.899 28.0869C121.583 29.0635 121.925 30.2598 121.925 31.6758C121.925 34.0358 120.981 35.932 119.093 37.3643C117.205 38.7803 114.755 39.4883 111.744 39.4883C109.628 39.4883 107.757 39.1139 106.129 38.3652C104.501 37.6165 103.224 36.5749 102.296 35.2402C101.384 33.8893 100.929 32.4326 100.929 30.8701H105.445C105.527 32.3838 106.129 33.5882 107.252 34.4834C108.391 35.3623 109.889 35.8018 111.744 35.8018C113.453 35.8018 114.82 35.46 115.846 34.7764C116.887 34.0765 117.408 33.1488 117.408 31.9932Z" stroke="#554596" stroke-width="2" mask="url(#path-1-outside-1)"/>
<path d="M135.182 26.7686L132.35 29.7227V39H127.833V1.5H132.35V24.1807L134.767 21.2754L142.994 12.584H148.487L138.209 23.6191L149.684 39H144.386L135.182 26.7686Z" stroke="#554596" stroke-width="2" mask="url(#path-1-outside-1)"/>
<path d="M169.459 39C169.199 38.4792 168.987 37.5514 168.824 36.2168C166.725 38.3978 164.218 39.4883 161.305 39.4883C158.701 39.4883 156.56 38.7559 154.884 37.291C153.224 35.8099 152.394 33.9382 152.394 31.6758C152.394 28.9251 153.435 26.793 155.519 25.2793C157.618 23.7493 160.564 22.9844 164.356 22.9844H168.751V20.9092C168.751 19.3304 168.279 18.0771 167.335 17.1494C166.391 16.2054 164.999 15.7334 163.16 15.7334C161.549 15.7334 160.198 16.1403 159.107 16.9541C158.017 17.7679 157.472 18.7526 157.472 19.9082H152.931C152.931 18.5898 153.395 17.3203 154.322 16.0996C155.266 14.8626 156.536 13.8861 158.131 13.1699C159.742 12.4538 161.508 12.0957 163.429 12.0957C166.472 12.0957 168.857 12.8607 170.582 14.3906C172.307 15.9043 173.202 17.9958 173.268 20.665V32.8232C173.268 35.2484 173.577 37.1771 174.195 38.6094V39H169.459ZM161.964 35.5576C163.38 35.5576 164.723 35.1914 165.992 34.459C167.262 33.7266 168.181 32.7744 168.751 31.6025V26.1826H165.211C159.677 26.1826 156.91 27.8021 156.91 31.041C156.91 32.457 157.382 33.5638 158.326 34.3613C159.27 35.1589 160.483 35.5576 161.964 35.5576Z" stroke="#554596" stroke-width="2" mask="url(#path-1-outside-1)"/>
<path d="M196.656 39C196.396 38.4792 196.184 37.5514 196.021 36.2168C193.922 38.3978 191.415 39.4883 188.502 39.4883C185.898 39.4883 183.757 38.7559 182.081 37.291C180.421 35.8099 179.591 33.9382 179.591 31.6758C179.591 28.9251 180.632 26.793 182.716 25.2793C184.815 23.7493 187.761 22.9844 191.554 22.9844H195.948V20.9092C195.948 19.3304 195.476 18.0771 194.532 17.1494C193.588 16.2054 192.197 15.7334 190.357 15.7334C188.746 15.7334 187.395 16.1403 186.305 16.9541C185.214 17.7679 184.669 18.7526 184.669 19.9082H180.128C180.128 18.5898 180.592 17.3203 181.52 16.0996C182.464 14.8626 183.733 13.8861 185.328 13.1699C186.939 12.4538 188.705 12.0957 190.626 12.0957C193.67 12.0957 196.054 12.8607 197.779 14.3906C199.505 15.9043 200.4 17.9958 200.465 20.665V32.8232C200.465 35.2484 200.774 37.1771 201.393 38.6094V39H196.656ZM189.161 35.5576C190.577 35.5576 191.92 35.1914 193.189 34.459C194.459 33.7266 195.379 32.7744 195.948 31.6025V26.1826H192.408C186.874 26.1826 184.107 27.8021 184.107 31.041C184.107 32.457 184.579 33.5638 185.523 34.3613C186.467 35.1589 187.68 35.5576 189.161 35.5576Z" stroke="#554596" stroke-width="2" mask="url(#path-1-outside-1)"/>
<path d="M220.313 16.6367C219.63 16.5228 218.889 16.4658 218.092 16.4658C215.13 16.4658 213.119 17.7272 212.062 20.25V39H207.545V12.584H211.939L212.013 15.6357C213.494 13.2757 215.593 12.0957 218.312 12.0957C219.19 12.0957 219.858 12.2096 220.313 12.4375V16.6367Z" stroke="#554596" stroke-width="2" mask="url(#path-1-outside-1)"/>
<path d="M231.837 6.1875V12.584H236.769V16.0752H231.837V32.457C231.837 33.515 232.057 34.3125 232.496 34.8496C232.936 35.3704 233.684 35.6309 234.742 35.6309C235.263 35.6309 235.979 35.5332 236.891 35.3379V39C235.702 39.3255 234.547 39.4883 233.424 39.4883C231.406 39.4883 229.884 38.8779 228.858 37.6572C227.833 36.4365 227.32 34.7031 227.32 32.457V16.0752H222.511V12.584H227.32V6.1875H231.837Z" stroke="#554596" stroke-width="2" mask="url(#path-1-outside-1)"/>
</svg>
